<?xml version="1.0" encoding="UTF-8"?>
<!DOCTYPE svg PUBLIC "-//W3C//DTD SVG 1.1//EN" "http://www.w3.org/Graphics/SVG/1.1/DTD/svg11.dtd">
<!-- Creator: CorelDRAW 2020 (64-Bit) -->
<svg xmlns="http://www.w3.org/2000/svg" xml:space="preserve" width="74.5066mm" height="80.7906mm" version="1.1" style="shape-rendering:geometricPrecision; text-rendering:geometricPrecision; image-rendering:optimizeQuality; fill-rule:evenodd; clip-rule:evenodd"
viewBox="0 0 7829.22 8489.55"
 xmlns:xlink="http://www.w3.org/1999/xlink"
 xmlns:xodm="http://www.corel.com/coreldraw/odm/2003">
 <defs>
  <style type="text/css">
   <![CDATA[
    .fil3 {fill:#000066}
    .fil0 {fill:#1FCFCC}
    .fil1 {fill:#208C61}
    .fil2 {fill:#F2CD00}
   ]]>
  </style>
 </defs>
 <g id="Capa_x0020_1">
  <metadata id="CorelCorpID_0Corel-Layer"/>
  <path class="fil0" d="M3670.45 6294.46l4.05 -2.77 -3.25 2.22 -0.8 0.56zm2850.28 -3296.52c-44.75,-26.93 -86.98,-54.45 -125.92,-82.46 -603.15,-433.8 -971.96,-725.75 -1700.87,-430.47 -331.36,134.27 -446.27,211.95 -768.29,520.94l-462.16 487.54c58.11,171.3 108.14,346.34 149.69,524.62 807.78,-723.53 1863.51,-1443.98 2890.76,-1030.42l16.79 10.26z"/>
  <path class="fil1" d="M3665.62 6297.75c893.6,-588.16 1090.66,-2072.38 2176.69,-2782.85 542.01,-354.64 935.43,11.57 1986.92,50.23 -226.88,-113.21 -883.7,-302.94 -1325.31,-577.44 -1027.24,-413.58 -2082.99,306.94 -2890.74,1030.46 95.56,410.25 146.18,837.68 146.18,1277.02 0,341.05 -30.58,675 -88.88,999.27l-4.87 3.32zm-184.33 -236.24l13.54 18.12 -7.72 -10.33 -5.82 -7.79z"/>
  <path class="fil2" d="M3665.61 6297.75l4.87 -3.32c58.33,-324.28 88.87,-658.21 88.87,-999.29 0,-1980.57 -1026.87,-3721.32 -2577.29,-4718.77 -342.14,-212.22 -729.84,-405.35 -1169.4,-571.92l-12.65 -4.46c263.23,742.59 1172.06,2499.25 1645.34,3261.99 447.24,720.81 1537.74,2457.6 2020.28,3035.77z"/>
  <path class="fil3" d="M143.42 8489.55c804.1,-154.97 1492.12,-440.8 2109.9,-848.65 381.95,-233.37 941.38,-743.29 1241.11,-1125.73 -367.38,-425.33 -727,-998.29 -991.3,-1389.54l-2359.71 3363.93z"/>
  <path class="fil3" d="M4310.46 2392.1c666.79,-223.7 981.69,-414.09 1725.58,-51.11l1661.25 -2340.99c-1531.7,53.98 -2912.18,1414.8 -3386.82,2392.1z"/>
 </g>
</svg>
